<?xml version="1.0" encoding="UTF-8" standalone="no"?>
<!-- Created with Inkscape (http://www.inkscape.org/) -->

<svg
   xmlns:dc="http://purl.org/dc/elements/1.1/"
   xmlns:cc="http://creativecommons.org/ns#"
   xmlns:rdf="http://www.w3.org/1999/02/22-rdf-syntax-ns#"
   xmlns:svg="http://www.w3.org/2000/svg"
   xmlns="http://www.w3.org/2000/svg"
   xmlns:sodipodi="http://sodipodi.sourceforge.net/DTD/sodipodi-0.dtd"
   xmlns:inkscape="http://www.inkscape.org/namespaces/inkscape"
   width="210mm"
   height="297mm"
   viewBox="0 0 210 297"
   version="1.1"
   id="svg5449"
   inkscape:version="0.92.2 (5c3e80d, 2017-08-06)"
   sodipodi:docname="mobile_phone.svg">
  <defs
     id="defs5443" />
  <sodipodi:namedview
     id="base"
     pagecolor="#ffffff"
     bordercolor="#666666"
     borderopacity="1.0"
     inkscape:pageopacity="0.0"
     inkscape:pageshadow="2"
     inkscape:zoom="0.35"
     inkscape:cx="400"
     inkscape:cy="560"
     inkscape:document-units="mm"
     inkscape:current-layer="layer1"
     showgrid="false"
     inkscape:window-width="1366"
     inkscape:window-height="706"
     inkscape:window-x="-8"
     inkscape:window-y="-8"
     inkscape:window-maximized="1" />
  <metadata
     id="metadata5446">
    <rdf:RDF>
      <cc:Work
         rdf:about="">
        <dc:format>image/svg+xml</dc:format>
        <dc:type
           rdf:resource="http://purl.org/dc/dcmitype/StillImage" />
        <dc:title></dc:title>
      </cc:Work>
    </rdf:RDF>
  </metadata>
  <g
     inkscape:label="Layer 1"
     inkscape:groupmode="layer"
     id="layer1">
    <path
       id="path5451"
       d="M 159.21302,55.397622 H 59.351704 c -6.899792,0 -12.482654,5.589112 -12.482654,12.482664 V 242.63758 c 0,6.89979 5.58326,12.48266 12.482654,12.48266 h 99.861316 c 6.8998,0 12.48267,-5.58326 12.48267,-12.48266 V 67.880286 c 0,-6.893552 -5.58287,-12.482664 -12.48267,-12.482664 z M 87.4377,67.880286 h 43.68933 c 1.73119,0 3.12066,1.395717 3.12066,3.120665 0,1.724949 -1.38987,3.120666 -3.12066,3.120666 H 87.4377 c -1.731191,0 -3.120659,-1.395717 -3.120659,-3.120666 0,-1.724948 1.389866,-3.120665 3.120659,-3.120665 z M 109.28236,248.8789 c -5.1686,0 -9.36199,-4.19339 -9.36199,-9.362 0,-5.1686 4.19339,-9.36199 9.36199,-9.36199 5.16861,0 9.362,4.19339 9.362,9.36199 0,5.16861 -4.19339,9.362 -9.362,9.362 z m 49.93066,-24.96532 H 59.351704 V 86.604281 h 99.861316 z"
       inkscape:connector-curvature="0"
       style="clip-rule:evenodd;fill:#000000;fill-rule:evenodd;stroke-width:0.39008322;opacity:0.7" />
  </g>
</svg>
